<svg xmlns="http://www.w3.org/2000/svg" width="600" height="400" viewBox="0 0 600 400"><rect width="100%" height="100%" fill="#222"/><path fill="#FFF" d="M127.42 196.175h4.93q1.81 0 3.16-.45t2.24-1.3q.89-.84 1.33-2.06.45-1.21.45-2.7 0-1.42-.45-2.58-.44-1.15-1.32-1.96-.88-.8-2.23-1.23t-3.18-.43h-4.93zm-6.59-17.81h11.52q3.55 0 6.15.84 2.59.83 4.28 2.32 1.69 1.5 2.52 3.58.82 2.08.82 4.56 0 2.57-.86 4.71-.86 2.15-2.57 3.69-1.72 1.54-4.3 2.4-2.59.86-6.04.86h-4.93v12.47h-6.59zm34.72 11.81.37 2.84q1.17-2.25 2.79-3.54 1.62-1.28 3.82-1.28 1.74 0 2.79.76l-.39 4.53q-.12.44-.35.62-.24.19-.63.19-.37 0-1.09-.12-.72-.13-1.41-.13-1 0-1.79.3-.78.29-1.4.84-.63.55-1.11 1.34-.47.78-.89 1.79v15.48h-6.05v-25.14h3.55q.93 0 1.3.33t.49 1.19m24.06-1.91q2.79 0 5.08.91 2.29.9 3.92 2.57t2.51 4.07.88 5.36q0 2.99-.88 5.39t-2.51 4.09-3.92 2.6-5.08.91q-2.82 0-5.12-.91-2.31-.91-3.94-2.6-1.62-1.69-2.52-4.09-.89-2.4-.89-5.39 0-2.96.89-5.36.9-2.4 2.52-4.07 1.63-1.67 3.94-2.57 2.3-.91 5.12-.91m0 21.24q3.13 0 4.64-2.1 1.51-2.11 1.51-6.18t-1.51-6.2-4.64-2.13q-3.19 0-4.72 2.15-1.53 2.14-1.53 6.18t1.53 6.16 4.72 2.12m17.22-20.85h6.08v26q0 1.64-.43 3.08-.43 1.45-1.37 2.54-.95 1.09-2.48 1.72-1.53.62-3.73.62-.86 0-1.6-.11-.73-.11-1.52-.36l.22-3.25q.08-.49.4-.63.31-.13 1.22-.13t1.53-.19q.63-.18.99-.59.37-.4.53-1.06t.16-1.64zm6.91-7.32q0 .78-.32 1.47-.32.68-.84 1.2-.53.51-1.25.82-.73.3-1.53.3-.79 0-1.47-.3-.69-.31-1.21-.82-.51-.52-.82-1.2-.3-.69-.3-1.47 0-.81.3-1.52.31-.71.82-1.23.52-.51 1.21-.82.68-.3 1.47-.3.8 0 1.53.3.72.31 1.25.82.52.52.84 1.23t.32 1.52m10.12 17h11.42q0-1.18-.34-2.22-.33-1.04-.99-1.82-.66-.79-1.68-1.24-1.01-.45-2.36-.45-2.62 0-4.13 1.49-1.51 1.5-1.92 4.24m15.43 3.65h-15.55q.14 1.94.68 3.35.54 1.4 1.42 2.32t2.1 1.37q1.21.46 2.68.46t2.54-.35q1.06-.34 1.86-.75.79-.42 1.39-.76.6-.35 1.17-.35.76 0 1.13.57l1.73 2.2q-1 1.18-2.25 1.97-1.25.8-2.61 1.28t-2.77.67q-1.41.2-2.73.2-2.62 0-4.87-.87-2.26-.87-3.92-2.57-1.67-1.71-2.63-4.22-.95-2.51-.95-5.82 0-2.57.83-4.84.83-2.26 2.39-3.94t3.8-2.66 5.06-.98q2.37 0 4.38.76t3.46 2.22q1.44 1.46 2.26 3.57.82 2.12.82 4.84 0 1.38-.29 1.85-.29.48-1.13.48m25.56-10.22-1.6 2.21q-.27.34-.52.54-.26.19-.75.19-.47 0-.91-.28t-1.05-.63q-.61-.36-1.46-.64-.84-.28-2.09-.28-1.59 0-2.8.57-1.2.58-1.99 1.66-.8 1.07-1.19 2.61-.39 1.53-.39 3.46 0 2.01.43 3.58t1.23 2.63q.81 1.07 1.96 1.62 1.16.55 2.6.55 1.45 0 2.34-.35.89-.36 1.51-.79.61-.43 1.06-.78.46-.36 1.02-.36.73 0 1.1.57l1.74 2.2q-1 1.18-2.18 1.97-1.17.8-2.44 1.28-1.26.48-2.59.67-1.34.2-2.66.2-2.33 0-4.39-.87t-3.6-2.54q-1.54-1.66-2.44-4.08-.89-2.41-.89-5.5 0-2.77.8-5.13.79-2.36 2.34-4.09 1.54-1.73 3.82-2.71t5.24-.98q2.82 0 4.94.91 2.12.9 3.81 2.59m12.39 22.42q-3.28 0-5.03-1.85t-1.75-5.11v-14.03h-2.58q-.49 0-.83-.32t-.34-.96v-2.4l4.04-.66 1.28-6.86q.12-.49.46-.76t.88-.27h3.14v7.91h6.71v4.32h-6.71v13.62q0 1.17.57 1.83.58.67 1.58.67.57 0 .95-.14.38-.13.66-.28t.5-.28q.22-.14.44-.14.27 0 .44.14.18.13.37.4l1.81 2.94q-1.32 1.11-3.03 1.67-1.72.56-3.56.56m30.14 0q-3.28 0-5.04-1.85-1.75-1.85-1.75-5.11v-14.03h-2.57q-.49 0-.83-.32-.35-.32-.35-.96v-2.4l4.05-.66 1.27-6.86q.12-.49.47-.76.34-.27.88-.27h3.13v7.91h6.72v4.32h-6.72v13.62q0 1.17.58 1.83.58.67 1.58.67.56 0 .94-.14.38-.13.66-.28.29-.15.51-.28.22-.14.44-.14.27 0 .44.14.17.13.37.4l1.81 2.94q-1.32 1.11-3.04 1.67-1.71.56-3.55.56m14.63-15.85h11.41q0-1.18-.33-2.22t-.99-1.82q-.66-.79-1.68-1.24t-2.36-.45q-2.62 0-4.13 1.49-1.51 1.5-1.92 4.24m15.43 3.65h-15.56q.15 1.94.69 3.35.54 1.4 1.42 2.32t2.09 1.37q1.22.46 2.69.46t2.53-.35q1.07-.34 1.87-.75.79-.42 1.39-.76.6-.35 1.17-.35.75 0 1.12.57l1.74 2.2q-1 1.18-2.25 1.97-1.25.8-2.61 1.28t-2.77.67q-1.41.2-2.73.2-2.62 0-4.88-.87-2.25-.87-3.92-2.57-1.66-1.71-2.62-4.22-.95-2.51-.95-5.82 0-2.57.83-4.84.83-2.26 2.39-3.94 1.55-1.68 3.8-2.66 2.24-.98 5.05-.98 2.38 0 4.39.76t3.45 2.22q1.45 1.46 2.27 3.57.82 2.12.82 4.84 0 1.38-.29 1.85-.3.48-1.13.48m12.01 11.81h-6.06v-25.14h3.7q1.18 0 1.55 1.11l.39 1.86q.66-.74 1.38-1.35.73-.61 1.55-1.05t1.76-.7 2.07-.26q2.38 0 3.91 1.29 1.53 1.28 2.29 3.42.59-1.25 1.47-2.15.88-.89 1.93-1.46 1.06-.56 2.25-.83 1.18-.27 2.39-.27 2.08 0 3.69.64 1.62.63 2.72 1.86 1.11 1.23 1.68 2.99.58 1.76.58 4.04v16h-6.05v-16q0-2.4-1.06-3.61-1.05-1.21-3.08-1.21-.93 0-1.73.31-.8.32-1.4.92t-.94 1.51-.34 2.08v16h-6.08v-16q0-2.52-1.02-3.67-1.01-1.15-2.97-1.15-1.33 0-2.47.64-1.13.65-2.11 1.78zm41.03-17.79v11.27q1.03 1.25 2.24 1.77 1.22.51 2.64.51 1.37 0 2.47-.51 1.11-.52 1.88-1.57t1.19-2.66q.41-1.6.41-3.78 0-2.21-.35-3.74-.36-1.53-1.02-2.49-.66-.95-1.6-1.39-.95-.44-2.15-.44-1.89 0-3.21.79-1.32.8-2.5 2.24m-.81-6.24.49 2.32q1.55-1.74 3.51-2.81 1.96-1.08 4.6-1.08 2.06 0 3.76.85 1.71.86 2.94 2.49 1.24 1.63 1.92 4.02.67 2.39.67 5.48 0 2.81-.76 5.21t-2.17 4.17q-1.41 1.76-3.4 2.76-2 .99-4.48.99-2.1 0-3.6-.65-1.49-.65-2.67-1.8v10.29h-6.05v-33.35h3.7q1.18 0 1.54 1.11m22.67-12.38h6.05v36.41h-6.05zm25.38 29.92v-4.24q-2.62.12-4.41.45t-2.87.85q-1.08.51-1.54 1.2-.47.68-.47 1.49 0 1.59.95 2.28.94.69 2.46.69 1.86 0 3.22-.68 1.36-.67 2.66-2.04m-12.79-13.21-1.08-1.93q4.34-3.97 10.44-3.97 2.2 0 3.94.72t2.94 2.01 1.83 3.07q.62 1.79.62 3.92v15.88h-2.74q-.86 0-1.32-.26-.47-.25-.74-1.04l-.54-1.81q-.95.86-1.86 1.51-.91.64-1.89 1.09-.98.44-2.09.67-1.12.23-2.46.23-1.6 0-2.94-.43-1.35-.43-2.33-1.28-.98-.86-1.52-2.13-.54-1.28-.54-2.97 0-.95.32-1.9.32-.94 1.04-1.8t1.88-1.62q1.15-.76 2.83-1.32 1.67-.56 3.9-.92 2.23-.35 5.1-.43v-1.47q0-2.52-1.08-3.73t-3.11-1.21q-1.47 0-2.44.34t-1.7.77q-.74.43-1.34.77t-1.33.34q-.64 0-1.08-.33t-.71-.77m32.76 20.09q-3.29 0-5.04-1.85t-1.75-5.11v-14.03h-2.57q-.49 0-.84-.32-.34-.32-.34-.96v-2.4l4.04-.66 1.28-6.86q.12-.49.46-.76.35-.27.89-.27h3.13v7.91h6.71v4.32h-6.71v13.62q0 1.17.58 1.83.57.67 1.58.67.56 0 .94-.14.38-.13.66-.28t.5-.28q.22-.14.45-.14.27 0 .44.14.17.13.36.4l1.82 2.94q-1.33 1.11-3.04 1.67-1.72.56-3.55.56m14.62-15.85h11.42q0-1.18-.33-2.22t-.99-1.82q-.66-.79-1.68-1.24t-2.37-.45q-2.62 0-4.12 1.49-1.51 1.5-1.93 4.24m15.44 3.65h-15.56q.15 1.94.69 3.35.54 1.4 1.42 2.32t2.09 1.37q1.22.46 2.69.46t2.53-.35q1.07-.34 1.86-.75.8-.42 1.4-.76.6-.35 1.16-.35.76 0 1.13.57l1.74 2.2q-1.01 1.18-2.25 1.97-1.25.8-2.61 1.28t-2.77.67q-1.41.2-2.73.2-2.63 0-4.88-.87t-3.92-2.57q-1.67-1.71-2.62-4.22-.96-2.51-.96-5.82 0-2.57.84-4.84.83-2.26 2.39-3.94 1.55-1.68 3.79-2.66t5.06-.98q2.38 0 4.39.76t3.45 2.22q1.45 1.46 2.27 3.57.82 2.12.82 4.84 0 1.38-.3 1.85-.29.48-1.12.48"/></svg>